<svg xmlns="http://www.w3.org/2000/svg" viewBox="0 0 100 100">
  <defs>
    <linearGradient id="grad" x1="0%" y1="0%" x2="100%" y2="100%">
      <stop offset="0%" style="stop-color:#6366f1"/>
      <stop offset="100%" style="stop-color:#8b5cf6"/>
    </linearGradient>
  </defs>
  <circle cx="50" cy="50" r="45" fill="url(#grad)"/>
  <g transform="translate(25, 25)" fill="white">
    <path d="M25 0C11.2 0 0 11.2 0 25s11.2 25 25 25 25-11.2 25-25S38.8 0 25 0zm0 45c-11 0-20-9-20-20s9-20 20-20 20 9 20 20-9 20-20 20z" opacity="0"/>
    <path d="M35.5 8.5l-6 6-4-4-6 6 4 4-6 6 4 4 6-6 4 4 6-6-4-4 6-6z"/>
    <path d="M8.5 35.5l6-6 4 4 6-6-4-4 6-6-4-4-6 6-4-4-6 6 4 4-6 6z"/>
  </g>
</svg>

